<?xml version="1.0" encoding="utf-8"?>
<!-- Generator: Adobe Illustrator 26.0.0, SVG Export Plug-In . SVG Version: 6.00 Build 0)  -->
<svg version="1.1" id="Layer_1" xmlns="http://www.w3.org/2000/svg" xmlns:xlink="http://www.w3.org/1999/xlink" x="0px" y="0px"
	 viewBox="0 0 27 27" style="enable-background:new 0 0 27 27;" xml:space="preserve">
<style type="text/css">
	.st0{fill:#FFFFFF;}
</style>
<path class="st0" d="M23,1.4c1.5,0,2.7,1.2,2.7,2.7V23c0,1.5-1.2,2.7-2.7,2.7H4.1c-1.5,0-2.7-1.2-2.7-2.7V4.1c0-1.5,1.2-2.7,2.7-2.7
	H23 M22.3,22.3v-7.2c0-2.4-2-4.4-4.4-4.4c0,0,0,0,0,0c-1.1,0-2.5,0.7-3.1,1.8V11H11v11.3h3.8v-6.7c0-1,0.8-1.9,1.9-1.9
	c1,0,1.9,0.8,1.9,1.9v6.7H22.3 M6.6,8.9c1.3,0,2.3-1,2.3-2.3l0,0c0-1.3-1-2.3-2.3-2.3c-1.3,0-2.3,1-2.3,2.3l0,0
	C4.3,7.8,5.3,8.9,6.6,8.9 M8.5,22.3V11H4.7v11.3H8.5z"/>
</svg>
