<?xml version="1.0" encoding="utf-8"?>
<!-- Generator: Adobe Illustrator 26.0.0, SVG Export Plug-In . SVG Version: 6.00 Build 0)  -->
<svg version="1.1" id="Layer_1" xmlns="http://www.w3.org/2000/svg" xmlns:xlink="http://www.w3.org/1999/xlink" x="0px" y="0px"
	 viewBox="0 0 50 50" style="enable-background:new 0 0 50 50;" xml:space="preserve">
<style type="text/css">
	.st0{fill:#9013FE;}
</style>
<path class="st0" d="M9,4C6.3,4,4,6.3,4,9v32c0,2.7,2.3,5,5,5h32c2.7,0,5-2.3,5-5V9c0-2.7-2.3-5-5-5H9z M9,6h32c1.7,0,3,1.3,3,3v32
	c0,1.7-1.3,3-3,3H9c-1.7,0-3-1.3-3-3V9C6,7.3,7.3,6,9,6z M14,11c-1.1,0-2.1,0.3-2.8,0.9S10,13.5,10,14.5c0,1.9,1.6,3.3,3.7,3.5
	c0,0,0,0,0,0c0.1,0,0.2,0.1,0.3,0.1c2.3,0,4-1.6,4-3.5c0,0,0,0,0-0.1C17.9,12.5,16.2,11,14,11z M14,13c1.4,0,1.9,0.6,2,1.5
	c0,0.9-0.5,1.5-2,1.5c-1.4,0-2-0.7-2-1.5c0-0.4,0.2-0.7,0.5-1C12.8,13.2,13.3,13,14,13z M11,19c-0.6,0-1,0.4-1,1v19c0,0.6,0.4,1,1,1
	h6c0.6,0,1-0.4,1-1v-5.9V20c0-0.6-0.4-1-1-1H11z M20,19c-0.6,0-1,0.4-1,1v19c0,0.6,0.4,1,1,1h6c0.6,0,1-0.4,1-1V29
	c0-0.8,0.2-1.7,0.6-2.2s0.9-0.9,1.9-0.8c1,0,1.5,0.4,1.9,0.9c0.4,0.5,0.6,1.3,0.6,2.2v10c0,0.6,0.4,1,1,1h6c0.6,0,1-0.4,1-1V28.3
	c0-3-0.9-5.3-2.4-6.9S34,19,31.8,19c-2.1,0-3.7,0.7-4.8,1.4V20c0-0.6-0.4-1-1-1H20z M12,21h4v12.1V38h-4V21z M21,21h4v1.6
	c0,0.6,0.4,1,1,1c0.3,0,0.6-0.1,0.8-0.4c0,0,1.6-2.2,5-2.2c1.8,0,3.3,0.6,4.4,1.7s1.8,2.9,1.8,5.5V38h-4v-9c0-1.2-0.3-2.4-1-3.4
	S31,24,29.5,24c-1.5,0-2.8,0.7-3.5,1.7s-1,2.2-1,3.4v9h-4V21z"/>
</svg>
