<?xml version="1.0" encoding="utf-8"?>
<!-- Generator: Adobe Illustrator 26.0.0, SVG Export Plug-In . SVG Version: 6.00 Build 0)  -->
<svg version="1.1" id="Layer_1" xmlns="http://www.w3.org/2000/svg" xmlns:xlink="http://www.w3.org/1999/xlink" x="0px" y="0px"
	 viewBox="0 0 50 50" style="enable-background:new 0 0 50 50;" xml:space="preserve">
<style type="text/css">
	.st0{fill:#9013FE;}
</style>
<path class="st0" d="M9,4C6.3,4,4,6.3,4,9v32c0,2.7,2.3,5,5,5h16.8c0.1,0,0.2,0,0.3,0h5.7c0.1,0,0.2,0,0.3,0H41c2.7,0,5-2.3,5-5V9
	c0-2.7-2.3-5-5-5H9z M9,6h32c1.7,0,3,1.3,3,3v32c0,1.7-1.3,3-3,3h-8V30h3.8l1.4-7H33v-2c0-0.6,0.1-0.6,0.2-0.7S34,20,35,20h3v-5.6
	l-0.6-0.3c0,0-2.3-1.1-5.4-1.1c-2.2,0-4.1,0.9-5.3,2.4S25,18.8,25,21v2h-3v7h3v14H9c-1.7,0-3-1.3-3-3V9C6,7.3,7.3,6,9,6z M32,15
	c2.1,0,3.4,0.5,4,0.7V18h-1c-1.2,0-2.1,0.1-2.8,0.6C31.4,19.1,31,20.1,31,21v4h4.8l-0.6,3H31v16h-4V28h-3v-3h3v-4
	c0-1.8,0.5-3.4,1.3-4.4S30.2,15,32,15z"/>
</svg>
