<?xml version="1.0" encoding="utf-8"?>
<!-- Generator: Adobe Illustrator 26.0.0, SVG Export Plug-In . SVG Version: 6.00 Build 0)  -->
<svg version="1.1" id="Layer_1" xmlns="http://www.w3.org/2000/svg" xmlns:xlink="http://www.w3.org/1999/xlink" x="0px" y="0px"
	 viewBox="0 0 27 27" style="enable-background:new 0 0 27 27;" xml:space="preserve">
<style type="text/css">
	.st0{fill:#FFFFFF;}
</style>
<path class="st0" d="M7.8,0h11.3C23.5,0,27,3.5,27,7.8v11.3c0,4.3-3.5,7.8-7.8,7.8H7.8C3.5,27,0,23.5,0,19.2V7.8C0,3.5,3.5,0,7.8,0
	 M7.6,2.7c-2.7,0-4.9,2.2-4.9,4.9l0,0v11.9c0,2.7,2.2,4.9,4.9,4.9h11.9c2.7,0,4.9-2.2,4.9-4.9c0,0,0,0,0,0V7.6
	c0-2.7-2.2-4.9-4.9-4.9H7.6 M20.6,4.7c0.9,0,1.7,0.8,1.7,1.7s-0.8,1.7-1.7,1.7c-0.9,0-1.7-0.8-1.7-1.7S19.7,4.7,20.6,4.7 M13.5,6.8
	c3.7,0,6.8,3,6.8,6.8s-3,6.8-6.8,6.8s-6.8-3-6.8-6.8S9.8,6.8,13.5,6.8 M13.5,9.4c-2.2,0-4.1,1.8-4.1,4.1s1.8,4.1,4.1,4.1
	s4.1-1.8,4.1-4.1S15.7,9.4,13.5,9.4z"/>
</svg>
