<?xml version="1.0" encoding="utf-8"?>
<!-- Generator: Adobe Illustrator 26.0.0, SVG Export Plug-In . SVG Version: 6.00 Build 0)  -->
<svg version="1.1"
	 id="svg2" inkscape:output_extension="org.inkscape.output.svg.inkscape" inkscape:version="0.46" xmlns:cc="http://creativecommons.org/ns#" xmlns:dc="http://purl.org/dc/elements/1.1/" xmlns:inkscape="http://www.inkscape.org/namespaces/inkscape" xmlns:rdf="http://www.w3.org/1999/02/22-rdf-syntax-ns#" xmlns:sodipodi="http://sodipodi.sourceforge.net/DTD/sodipodi-0.dtd" xmlns:svg="http://www.w3.org/2000/svg"
	 xmlns="http://www.w3.org/2000/svg" xmlns:xlink="http://www.w3.org/1999/xlink" x="0px" y="0px" viewBox="0 0 287.1 41.1"
	 style="enable-background:new 0 0 287.1 41.1;" xml:space="preserve">
<style type="text/css">
	.st0{fill-rule:evenodd;clip-rule:evenodd;fill:#FFFFFF;}
</style>
<defs>
	
		<inkscape:perspective  id="perspective25" inkscape:persp3d-origin="120.625 : 80.416667 : 1" inkscape:vp_x="0 : 120.625 : 1" inkscape:vp_y="0 : 1000 : 0" inkscape:vp_z="241.25 : 120.625 : 1" sodipodi:type="inkscape:persp3d">
		</inkscape:perspective>
</defs>
<sodipodi:namedview  bordercolor="#666666" borderopacity="1.0" gridtolerance="10.0" guidetolerance="10.0" id="base" inkscape:current-layer="svg2" inkscape:cx="46.57353" inkscape:cy="-15.883813" inkscape:pageopacity="0.0" inkscape:pageshadow="2" inkscape:window-height="667" inkscape:window-width="640" inkscape:window-x="22" inkscape:window-y="23" inkscape:zoom="5.6568543" objecttolerance="10.0" pagecolor="#ffffff" showgrid="false">
	</sodipodi:namedview>
<g id="g4" transform="matrix(8.61737, 0, 0, 8.61737, -576.827, 29.0673)">
	<path id="path6" class="st0" d="M70.4-0.2l-0.2-0.4h-1.7l-0.2,0.4h-0.9l1.3-2.5h1.2l1.3,2.5H70.4z M69.9-1.1l-0.5-0.9h-0.1
		l-0.5,0.9H69.9z M71.4-2.7h0.8v1.8h1.8v0.6h-2.6V-2.7z M74.2-2.7H75v2.5h-0.8V-2.7z M75.2-2.7H78v0.6h-2v0.4h1.9v0.5H76v0.4h2v0.6
		h-2.8V-2.7z M78.3-2.7h1.3l1.3,1.8H81l0-1.8h0.8v2.5h-1.3L79.1-2h-0.1l0,1.8h-0.8V-2.7z M81.9-2.7h0.8l0.7,1.9h0.1L84-2.7h0.9
		l0.6,1.9h0.1l0.7-1.9h0.8l-1,2.5H85L84.5-2L84-0.2h-1.2L81.9-2.7z M89.5-0.2h0.9l-1.3-2.5h-1.2l-1.3,2.5h0.9l0.2-0.4h1.6L89.5-0.2z
		 M89-1.1h-1.1l0.5-0.9h0.1L89-1.1z M90.5-0.2v-2.5h1.8c0.4,0,0.7,0,0.8,0c0.1,0,0.2,0,0.3,0.1c0.1,0.1,0.2,0.1,0.2,0.2
		c0,0.1,0.1,0.3,0.1,0.5c0,0.2,0,0.3,0,0.4c0,0.1-0.1,0.2-0.1,0.2c-0.1,0.1-0.2,0.1-0.3,0.1c0.2,0,0.3,0,0.4,0.1
		c0,0,0.1,0.1,0.1,0.2c0,0.1,0,0.2,0,0.4v0.2h-0.8v-0.1c0-0.1,0-0.2,0-0.3c0-0.1,0-0.1-0.1-0.1c0,0-0.1,0-0.1-0.1
		c-0.1,0-0.2,0-0.3,0h-1.1v0.6H90.5z M91.3-1.4h1.1c0.2,0,0.3,0,0.3,0c0,0,0.1,0,0.1,0c0,0,0.1-0.1,0.1-0.1c0,0,0-0.1,0-0.2
		c0-0.1,0-0.1,0-0.2c0,0,0-0.1-0.1-0.1c0,0-0.1,0-0.1,0c0,0-0.1,0-0.3,0h-1.1V-1.4z M93.9-2.7h2.8v0.6h-2v0.4h1.9v0.5h-1.9v0.4h2
		v0.6h-2.8V-2.7z"/>
</g>
<g id="g8" transform="matrix(8.61737, 0, 0, 8.61737, -574.345, 159.546)">
	<path id="path10" class="st0" d="M67.2-14.7h0.2v0.3h0.5v-0.3h0.2v0.9h-0.2v-0.4h-0.5v0.4h-0.2V-14.7z M95.2-14.7h0.9v0.2h-0.7v0.1
		h0.7v0.6h-0.9V-14h0.7v-0.1h-0.7V-14.7z M90.9-14.7h0.9v0.2h-0.7v0.1h0.7v0.6h-0.9V-14h0.7v-0.1h-0.7V-14.7z M88.9-14.7h0.9v0.2
		h-0.7v0.1h0.7v0.6h-0.9V-14h0.7v-0.1h-0.7V-14.7z M89.9-14.7h0.2v0.3h0.4v-0.3h0.2v0.6h-0.3v0.4h-0.2v-0.4h-0.3V-14.7z M91.9-14.7
		h0.9v0.2h-0.3v0.7h-0.2v-0.7h-0.4V-14.7z M92.9-14.7h0.9v0.2h-0.7v0.1h0.5v0.2h-0.5v0.1h0.7v0.2h-0.9V-14.7z M81.3-14.7h0.9v0.2
		h-0.7v0.1H82v0.2h-0.5v0.1h0.7v0.2h-0.9V-14.7z M74.2-13.8H74v-0.9h0.9v0.2h-0.7v0.1h0.5v0.2h-0.5V-13.8z M72-14.7h0.9v0.2h-0.7
		v0.1h0.5v0.2h-0.5v0.1h0.7v0.2H72V-14.7z M93.9-14.7h1.2v0.9h-0.2v-0.7h-0.3v0.7h-0.2v-0.7h-0.3v0.7h-0.2V-14.7z M84.8-14.7H86v0.9
		h-0.2v-0.7h-0.3v0.7h-0.2v-0.7H85v0.7h-0.2V-14.7z M77-14.7h1.2v0.9H78v-0.7h-0.3v0.7h-0.2v-0.7h-0.3v0.7H77V-14.7z M80.3-14.7h0.9
		v0.2h-0.7v0.5h0.7v0.2h-0.9V-14.7z M86.4-14.7h0.9v0.9h-0.2v-0.7h-0.4v0.7h-0.2V-14.7z M79.3-14.7h0.9v0.9H80v-0.7h-0.5v0.7h-0.2
		V-14.7z M73-14.7c0.3,0,0.6,0,0.9,0c0,0.1,0,0.2,0,0.3h-0.2v0.2h0.2v0.4h-0.2v-0.4h-0.5v0.4H73V-14.7z M73.7-14.5h-0.5v0.1h0.5
		V-14.5z M76-14.7c0.3,0,0.6,0,0.9,0c0,0.1,0,0.2,0,0.3h-0.2v0.2h0.2v0.4h-0.2v-0.4h-0.4v0.4H76V-14.7z M76.7-14.5h-0.4v0.1h0.4
		V-14.5z M70.6-14.4h0.4v0.2h-0.4V-14.4z M75-14.7h0.9v0.9H75V-14.7z M75.2-14.5v0.5h0.5v-0.5H75.2z M83.8-14.7h0.9v0.9h-0.2v-0.4
		H84v0.4h-0.2V-14.7z M84-14.5v0.1h0.5v-0.1H84z M78.3-14.7h0.9v0.9H79v-0.4h-0.5v0.4h-0.2V-14.7z M78.5-14.5v0.1H79v-0.1H78.5z
		 M71-14.7h0.9v0.6h-0.7v0.4H71V-14.7z M71.3-14.5v0.1h0.5v-0.1H71.3z M87.4-14.7h0.9v0.2h-0.7v0.5h0.5v-0.1h-0.3v-0.2h0.5v0.6h-0.9
		V-14.7z M82.8-14.7h0.9v0.2H83v0.5h0.4v-0.1h-0.3v-0.2h0.5v0.6h-0.9V-14.7z M68.6-14.7h0.9v0.2h-0.7v0.5h0.5v-0.1h-0.3v-0.2h0.5
		v0.6h-0.9V-14.7z M86.1-14.7h0.2v0.9h-0.2V-14.7z M68.2-14.7h0.2v0.9h-0.2V-14.7z M69.6-14.7h0.2v0.3h0.5v-0.3h0.2v0.9h-0.2v-0.4
		h-0.5v0.4h-0.2V-14.7z"/>
</g>
<g id="g12" transform="matrix(8.61737, 0, 0, 8.61737, 662.413, 0)">
	<path id="path14" class="st0" d="M-46.4,0.4c0.3-0.3,0.6-0.4,0.9-0.4l0,0c0.3,0,0.6,0.2,0.9,0.4c0.2,0.2,0.4,0.4,0.4,0.7
		c0.1,0.4,0,0.9,0,1.1c0,0.2-0.2,0.5-0.3,0.7c-0.3,0.5-0.7,0.9-0.9,0.9l0,0c-0.3,0-0.6-0.4-0.9-0.9c-0.2-0.3-0.3-0.5-0.4-0.7
		c0-0.2,0-0.7,0-1.1C-46.7,0.8-46.6,0.6-46.4,0.4z M-46.2,2.1c0.2,0.1,0.5,0.5,0.5,0.7c0.1,0.3,0,0.4-0.3,0.2
		c-0.2-0.1-0.5-0.4-0.5-0.5C-46.6,2.1-46.6,1.9-46.2,2.1z M-44.7,2.1c-0.2,0.1-0.5,0.5-0.5,0.7c-0.1,0.3,0,0.4,0.3,0.2
		c0.2-0.1,0.5-0.4,0.5-0.5C-44.3,2.1-44.3,1.9-44.7,2.1z"/>
</g>
<g id="g16" transform="matrix(8.61737, 0, 0, 8.61737, 785.478, 30.9269)">
	<path id="path18" class="st0" d="M-57.9-2.7L-57.9-2.7L-57.9-2.7C-57.9-2.6-57.9-2.6-57.9-2.7C-57.9-2.7-57.9-2.7-57.9-2.7
		C-57.9-2.7-57.9-2.7-57.9-2.7C-57.9-2.7-57.9-2.7-57.9-2.7L-57.9-2.7z M-58-2.8L-58-2.8c0.1,0,0.2,0,0.2,0c0,0,0,0,0,0.1
		c0,0,0,0,0,0c0,0,0,0,0,0l0.1,0.1h-0.1l-0.1-0.1h0v0.1H-58V-2.8z M-57.9-2.8C-57.9-2.8-57.9-2.8-57.9-2.8c0.1,0,0.1,0,0.1,0.1
		c0,0,0,0,0,0.1c0,0,0,0.1,0,0.1c0,0,0,0.1,0,0.1c0,0,0,0,0,0.1c0,0,0,0-0.1,0c0,0,0,0-0.1,0c0,0,0,0-0.1,0c0,0,0,0-0.1,0
		c0,0,0,0,0-0.1c0,0,0,0,0-0.1c0,0,0,0,0-0.1c0,0,0,0,0-0.1C-58-2.8-58-2.8-57.9-2.8C-58-2.8-57.9-2.8-57.9-2.8z M-57.9-2.9
		C-57.9-2.9-57.9-2.9-57.9-2.9c0.1,0,0.1,0,0.2,0.1c0,0,0,0,0,0.1c0,0,0,0.1,0,0.1c0,0,0,0.1,0,0.1c0,0,0,0.1,0,0.1c0,0,0,0-0.1,0
		c0,0-0.1,0-0.1,0c0,0-0.1,0-0.1,0c0,0,0,0-0.1,0c0,0,0,0,0-0.1c0,0,0-0.1,0-0.1c0,0,0-0.1,0-0.1c0,0,0,0,0-0.1
		C-58-2.8-58-2.8-57.9-2.9C-58-2.9-57.9-2.9-57.9-2.9z"/>
</g>
</svg>
