<?xml version="1.0" encoding="utf-8"?>
<!-- Generator: Adobe Illustrator 26.0.0, SVG Export Plug-In . SVG Version: 6.00 Build 0)  -->
<svg version="1.1" id="Layer_1" xmlns="http://www.w3.org/2000/svg" xmlns:xlink="http://www.w3.org/1999/xlink" x="0px" y="0px"
	 viewBox="0 0 120 21.9" style="enable-background:new 0 0 120 21.9;" xml:space="preserve">
<style type="text/css">
	.st0{fill:#FFFFFF;}
</style>
<path class="st0" d="M17.6,6.1L7.5,21.8h6.9l9.7-14.9L17.6,6.1z M59.1,5.8V0H39.5c-2.7,0.2-3.8,1.4-4.7,2.3c-0.9,1-1.5,3-1.5,3V0
	H22.9c-0.8,0-1.5,0.3-2.1,1.1s-3,4.7-3,4.7H59.1z M112.5,5.8V0h-21c-2.7,0.2-3.8,1.4-4.7,2.3c-0.9,1-1.5,3-1.5,3v0.5H112.5z M66,0
	h-5.9v5.8H66V0z M85.3,0h-5.9v5.8h5.9V0z M85.3,7.9l-5.8-0.3v6.7c0,0,0,1.9-1.9,1.9h-9.9c0,0-1.7-0.1-1.7-1.9V6.7l-5.8-0.4v10.3
	c0.9,4.9,5.4,5.3,5.4,5.3h0.5h13.4c0,0,5.7-0.5,5.7-5.9L85.3,7.9L85.3,7.9z M27.4,21.8h27.4c4.8-1,5.3-5.2,5.3-5.2
	c0.2-1.3,0.1-2.3,0.1-2.3c-0.1-0.9-1.8-4.7-5.4-5L33.6,7.6c0.4,1.9,1.2,2.8,1.8,3.4c1.3,1.3,3.4,1.6,3.4,1.6l14.7,1.2
	c0.5,0,1.3,0.1,1.3,1.2c0,0.1-0.1,1.1-1.2,1.1H33.1V7.5l-5.7-0.4L27.4,21.8L27.4,21.8z M85.3,21.8h21c5.3-0.3,6-5.2,6-5.2
	c0.2-1.3,0-2.4,0-2.4c-0.2-1.2-1.8-4.7-5.4-5C104.8,9,85.6,7.9,85.6,7.9c0.6,1.9,1.3,2.5,1.9,3.1c1.3,1.3,3.3,1.6,3.3,1.6l14.8,1.2
	c0.5,0,1.4,0.1,1.4,1.2c0,0.3-0.2,0.7-0.4,0.9c0,0-0.5,0.3-1,0.3H85.3V21.8z"/>
</svg>
