<?xml version="1.0" encoding="utf-8"?>
<!-- Generator: Adobe Illustrator 26.0.0, SVG Export Plug-In . SVG Version: 6.00 Build 0)  -->
<svg version="1.1"
	 id="svg1925" inkscape:version="0.44" xmlns:cc="http://web.resource.org/cc/" xmlns:dc="http://purl.org/dc/elements/1.1/" xmlns:inkscape="http://www.inkscape.org/namespaces/inkscape" xmlns:rdf="http://www.w3.org/1999/02/22-rdf-syntax-ns#" xmlns:sodipodi="http://sodipodi.sourceforge.net/DTD/sodipodi-0.dtd" xmlns:svg="http://www.w3.org/2000/svg"
	 xmlns="http://www.w3.org/2000/svg" xmlns:xlink="http://www.w3.org/1999/xlink" x="0px" y="0px" viewBox="0 0 1701.2 324.5"
	 style="enable-background:new 0 0 1701.2 324.5;" xml:space="preserve">
<style type="text/css">
	.st0{fill:#FFFFFF;}
</style>
<sodipodi:namedview  bordercolor="#666666" borderopacity="1.0" id="base" inkscape:current-layer="layer1" inkscape:cx="772.62263" inkscape:cy="520" inkscape:document-units="px" inkscape:pageopacity="0.0" inkscape:pageshadow="2" inkscape:window-height="574" inkscape:window-width="904" inkscape:window-x="217" inkscape:window-y="257" inkscape:zoom="0.35" pagecolor="#ffffff">
	</sodipodi:namedview>
<g id="layer1" transform="translate(486.0612,-508.1447)" inkscape:groupmode="layer" inkscape:label="Ebene 1">
	<g id="g2100">
		<g id="g2096" transform="translate(0,-11.54035)">
			<path id="path14" class="st0" d="M1193.3,768.1v-4.7h3c1.7,0,4,0.1,4,2.1c0,2.2-1.3,2.6-3.2,2.6H1193.3z M1193.3,771.4h2.1
				l4.5,8.2h5.1l-5.1-8.5c2.6-0.2,4.9-1.5,4.9-5.1c0-4.5-3-5.9-8.3-5.9h-7.5v19.5h4.3V771.4z M1215.2,769.9
				c0-11.4-8.8-18.1-18.8-18.1s-18.8,6.6-18.8,18.1c0,11.4,8.8,18.1,18.8,18.1S1215.2,781.3,1215.2,769.9 M1209.9,769.9
				c0,8.3-6.2,13.9-13.6,13.9v-0.1c-7.3,0.1-13.4-5.5-13.4-13.9c0-8.3,6-13.9,13.4-13.9C1203.7,756,1209.9,761.6,1209.9,769.9"/>
			<path id="path16" class="st0" d="M525,576.1l0,205.5h58V576.1H525z M68.5,575.9v205.7h58.5V625.4l45.4,0c15,0,25.7,3.7,33,11.5
				c9.2,9.8,12.9,25.6,12.9,54.4v90.3H275V667.9c0-81.1-51.7-92.1-102.3-92.1H68.5z M618.4,576.2v205.4h94.1
				c50.1,0,66.5-8.3,84.2-27c12.5-13.1,20.6-41.9,20.6-73.4c0-28.9-6.8-54.6-18.8-70.7c-21.5-28.7-52.5-34.3-98.7-34.3H618.4z
				 M676,620.9h24.9c36.2,0,59.6,16.3,59.6,58.4c0,42.2-23.4,58.4-59.6,58.4H676V620.9z M441.4,576.2L392.9,739l-46.4-162.8h-62.6
				l66.3,205.4h83.6l66.8-205.4H441.4z M844.4,781.6h58V576.2h-58V781.6z M1007,576.2l-81,205.3h57.2l12.8-36.3h95.8l12.2,36.3h62.1
				l-81.7-205.3H1007z M1044.7,613.7l35.1,96.2h-71.4L1044.7,613.7z"/>
		</g>
		<path id="path2045" class="st0" d="M-303.1,605v-29.3c2.8-0.2,5.7-0.4,8.6-0.4c80.2-2.5,132.8,68.9,132.8,68.9
			S-218.5,723-279.4,723c-8.8,0-16.6-1.4-23.7-3.8v-88.9c31.2,3.8,37.5,17.6,56.2,48.8l41.7-35.2c0,0-30.5-40-81.8-40
			C-292.5,604-297.9,604.4-303.1,605 M-303.1,508.1v43.8c2.9-0.2,5.8-0.4,8.6-0.5c111.5-3.8,184.1,91.4,184.1,91.4
			s-83.4,101.4-170.3,101.4c-8,0-15.4-0.7-22.4-2v27.1c6,0.8,12.2,1.2,18.7,1.2c80.9,0,139.4-41.3,196-90.2
			c9.4,7.5,47.8,25.8,55.7,33.8c-53.9,45.1-179.4,81.4-250.5,81.4c-6.9,0-13.5-0.4-19.9-1v38H4.3V508.1H-303.1z M-303.1,719.2v23.1
			c-74.8-13.3-95.6-91.1-95.6-91.1s35.9-39.8,95.6-46.2v25.3c-0.1,0-0.1,0-0.1,0c-31.3-3.8-55.8,25.5-55.8,25.5
			S-345.3,705-303.1,719.2 M-436,647.8c0,0,44.3-65.4,132.9-72.2v-23.7c-98.1,7.9-183,90.9-183,90.9s48.1,139,183,151.8v-25.2
			C-402.1,756.9-436,647.8-436,647.8"/>
	</g>
</g>
</svg>
